g top
v 0.500000 0.000000 -0.500000
v 0.500000 0.500000 0.500000
v -0.500000 0.000000 0.500000
v -0.500000 0.000000 -0.500000
v 0.000000 0.500000 0.500000
v 0.500000 0.500000 0.000000
v 0.500000 0.000000 0.000000
v 0.000000 0.000000 0.500000
v 0.000000 0.000000 0.000000
v 0.000000 0.500000 0.000000
vt 1.0000 0.0000
vt 1.0000 1.0000
vt 0.5000 1.0000
vt 0.5000 0.5000
vt 0.0000 0.5000
vt 0.0000 0.0000
vt 0.0000 0.5000
vt 0.5000 0.5000
vt 0.5000 1.0000
vt 0.0000 1.0000
vn 0.0000 1.0000 0.0000
s off
f 4/1/1 3/2/1 8/3/1 9/4/1
f 4/1/1 9/4/1 7/5/1 1/6/1
f 6/7/1 10/8/1 5/9/1 2/10/1
g bottom
v 0.500000 -0.500000 -0.500000
v 0.500000 -0.500000 0.500000
v -0.500000 -0.500000 0.500000
v -0.500000 -0.500000 -0.500000
vt 0.0000 1.0000
vt 0.0000 0.0000
vt 1.0000 0.0000
vt 1.0000 1.0000
vn 0.0000 -1.0000 0.0000
s off
f 11/11/2 12/12/2 13/13/2 14/14/2
g right
v -0.500000 -0.500000 0.500000
v -0.500000 -0.500000 -0.500000
v -0.500000 0.000000 0.500000
v -0.500000 0.000000 -0.500000
v 0.000000 0.500000 0.500000
v 0.000000 0.000000 0.500000
v 0.000000 0.000000 0.000000
v 0.000000 0.500000 0.000000
vt 1.0000 0.0000
vt 1.0000 0.5000
vt 0.0000 0.5000
vt 0.0000 0.0000
vt 0.5000 1.0000
vt 0.5000 0.5000
vt 1.0000 0.5000
vt 1.0000 1.0000
vn -1.0000 0.0000 0.0000
s off
f 15/15/3 17/16/3 18/17/3 16/18/3
f 22/19/3 21/20/3 20/21/3 19/22/3
g left
v 0.500000 -0.500000 -0.500000
v 0.500000 -0.500000 0.500000
v 0.500000 0.000000 -0.500000
v 0.500000 0.500000 0.500000
v 0.500000 0.500000 0.000000
v 0.500000 0.000000 0.000000
vt 0.5000 1.0000
vt 0.0000 1.0000
vt 0.0000 0.0000
vt 0.5000 0.5000
vt 1.0000 0.0000
vt 1.0000 0.5000
vn 1.0000 0.0000 0.0000
s off
f 27/23/4 26/24/4 24/25/4 28/26/4
f 24/25/4 23/27/4 25/28/4 28/26/4
g back
v 0.500000 -0.500000 0.500000
v -0.500000 -0.500000 0.500000
v 0.500000 0.500000 0.500000
v -0.500000 0.000000 0.500000
v 0.000000 0.500000 0.500000
v 0.000000 0.000000 0.500000
vt 1.0000 0.0000
vt 0.5000 0.5000
vt 0.0000 0.5000
vt 0.0000 0.0000
vt 0.5000 1.0000
vt 1.0000 1.0000
vn 0.0000 0.0000 1.0000
s off
f 29/29/5 34/30/5 32/31/5 30/32/5
f 33/33/5 34/30/5 29/29/5 31/34/5
g front
v 0.500000 -0.500000 -0.500000
v -0.500000 -0.500000 -0.500000
v 0.500000 0.000000 -0.500000
v -0.500000 0.000000 -0.500000
v 0.500000 0.500000 0.000000
v 0.500000 0.000000 0.000000
v 0.000000 0.000000 0.000000
v 0.000000 0.500000 0.000000
vt 0.0000 0.5000
vt 0.0000 0.0000
vt 1.0000 0.0000
vt 1.0000 0.5000
vt 0.0000 1.0000
vt 0.0000 0.5000
vt 0.5000 0.5000
vt 0.5000 1.0000
vn 0.0000 0.0000 -1.0000
s off
f 37/35/6 35/36/6 36/37/6 38/38/6
f 39/39/6 40/40/6 41/41/6 42/42/6
