g face
v -0.062500 -0.500000 0.500000
v -0.062500 -0.500000 0.062500
v 0.062500 0.500000 0.062500
v 0.062500 -0.500000 0.500000
v -0.062500 0.500000 0.500000
v -0.062500 0.500000 0.062500
v 0.062500 -0.500000 0.062500
v 0.062500 0.500000 0.500000
v -0.500000 -0.500000 0.062500
v -0.500000 -0.500000 -0.062500
v -0.500000 0.500000 0.062500
v -0.500000 0.500000 -0.062500
v 0.500000 0.500000 0.062500
v 0.500000 -0.500000 0.062500
v 0.500000 0.500000 -0.062500
v 0.500000 -0.500000 -0.062500
v 0.062500 0.500000 -0.062500
v 0.062500 -0.500000 -0.062500
v -0.062500 0.500000 -0.062500
v -0.062500 -0.500000 -0.062500
v 0.062500 0.500000 -0.500000
v 0.062500 -0.500000 -0.500000
v -0.062500 0.500000 -0.500000
v -0.062500 -0.500000 -0.500000
vt 0.5625 1.0000
vt 0.5625 0.0000
vt 1.0000 0.0000
vt 1.0000 1.0000
vt 1.0000 0.0000
vt 1.0000 1.0000
vt 0.5625 1.0000
vt 0.5625 0.0000
vt 0.4375 1.0000
vt 0.0000 1.0000
vt 0.0000 0.0000
vt 0.4375 0.0000
vt 0.5625 0.0000
vt 1.0000 0.0000
vt 1.0000 1.0000
vt 0.5625 1.0000
vt 0.4375 0.0000
vt 0.4375 1.0000
vt 0.0000 1.0000
vt 0.0000 0.0000
vt 0.4375 0.0000
vt 0.4375 1.0000
vt 0.0000 1.0000
vt 0.0000 0.0000
vt 0.5625 1.0000
vt 0.5625 0.0000
vt 1.0000 0.0000
vt 1.0000 1.0000
vt 0.4375 0.0000
vt 0.4375 1.0000
vt 0.0000 1.0000
vt 0.0000 0.0000
vn 0.0000 0.0000 -1.0000
vn -1.0000 0.0000 0.0000
vn 1.0000 0.0000 0.0000
vn 0.0000 0.0000 1.0000
s off
f 19/1/1 20/2/1 10/3/1 12/4/1
f 1/5/2 5/6/2 6/7/2 2/8/2
f 3/9/3 8/10/3 4/11/3 7/12/3
f 7/13/4 14/14/4 13/15/4 3/16/4
f 2/17/4 6/18/4 11/19/4 9/20/4
f 18/21/1 17/22/1 15/23/1 16/24/1
f 17/25/3 18/26/3 22/27/3 21/28/3
f 20/29/2 19/30/2 23/31/2 24/32/2
g edge
v -0.062500 -0.500000 0.500000
v -0.062500 -0.500000 0.062500
v 0.062500 0.500000 0.062500
v 0.062500 -0.500000 0.500000
v -0.062500 0.500000 0.500000
v -0.062500 0.500000 0.062500
v 0.062500 -0.500000 0.062500
v 0.062500 0.500000 0.500000
v -0.500000 -0.500000 0.062500
v -0.500000 -0.500000 -0.062500
v -0.500000 0.500000 0.062500
v -0.500000 0.500000 -0.062500
v 0.500000 0.500000 0.062500
v 0.500000 -0.500000 0.062500
v 0.500000 0.500000 -0.062500
v 0.500000 -0.500000 -0.062500
v 0.062500 0.500000 -0.062500
v 0.062500 -0.500000 -0.062500
v -0.062500 0.500000 -0.062500
v -0.062500 -0.500000 -0.062500
v 0.062500 0.500000 -0.500000
v 0.062500 -0.500000 -0.500000
v -0.062500 0.500000 -0.500000
v -0.062500 -0.500000 -0.500000
vt 0.4375 0.5625
vt 0.5625 0.5625
vt 0.5625 1.0000
vt 0.4375 1.0000
vt 1.0000 0.5625
vt 0.5625 0.5625
vt 0.5625 0.4375
vt 1.0000 0.4375
vt 0.4375 1.0000
vt 0.4375 0.0000
vt 0.5625 0.0000
vt 0.5625 1.0000
vt 0.5625 0.0000
vt 0.5625 1.0000
vt 0.4375 1.0000
vt 0.4375 0.0000
vt 0.4375 0.4375
vt 0.4375 0.0000
vt 0.5625 0.0000
vt 0.4375 0.0000
vt 0.5625 0.0000
vt 0.5625 1.0000
vt 0.4375 1.0000
vt 0.4375 0.4375
vt 0.5625 0.4375
vt 1.0000 0.4375
vt 1.0000 0.5625
vt 0.4375 0.5625
vt 0.0000 0.5625
vt 0.0000 0.4375
vt 0.0000 0.5625
vt 0.0000 0.4375
vt 0.5625 1.0000
vt 0.4375 1.0000
vt 0.4375 0.0000
vt 0.5625 0.0000
vt 0.5625 1.0000
vt 0.4375 1.0000
vt 0.4375 0.0000
vt 0.5625 0.0000
vn 0.0000 1.0000 0.0000
vn 0.0000 -1.0000 0.0000
vn 0.0000 0.0000 1.0000
vn -1.0000 0.0000 0.0000
vn 1.0000 0.0000 0.0000
vn 0.0000 0.0000 -1.0000
s off
f 27/33/5 30/34/5 29/35/5 32/36/5
f 34/37/6 44/38/6 26/39/6 33/40/6
f 29/41/7 25/42/7 28/43/7 32/44/7
f 33/45/8 35/46/8 36/47/8 34/48/8
f 26/39/6 31/49/6 28/50/6 25/51/6
f 38/52/9 40/53/9 39/54/9 37/55/9
f 30/34/5 27/33/5 41/56/5 43/57/5
f 36/58/5 35/59/5 30/34/5 43/57/5
f 42/60/6 40/61/6 38/62/6 31/49/6
f 41/56/5 27/33/5 37/63/5 39/64/5
f 26/39/6 44/38/6 42/60/6 31/49/6
f 42/60/6 44/38/6 48/65/6 46/66/6
f 46/67/10 48/68/10 47/69/10 45/70/10
f 43/57/5 41/56/5 45/71/5 47/72/5
