g face
v -0.062500 -0.500000 0.500000
v -0.062500 -0.500000 0.062500
v 0.062500 0.500000 0.062500
v 0.062500 -0.500000 0.500000
v -0.062500 0.500000 0.500000
v -0.062500 0.500000 0.062500
v 0.062500 -0.500000 0.062500
v 0.062500 0.500000 0.500000
v -0.500000 -0.500000 0.062500
v -0.500000 -0.500000 -0.062500
v -0.500000 0.500000 0.062500
v -0.500000 0.500000 -0.062500
v 0.500000 0.500000 0.062500
v 0.500000 -0.500000 0.062500
v 0.500000 0.500000 -0.062500
v 0.500000 -0.500000 -0.062500
vt 1.0000 0.0000
vt 1.0000 1.0000
vt 0.5625 1.0000
vt 0.5625 0.0000
vt 0.4375 1.0000
vt 0.0000 1.0000
vt 0.0000 0.0000
vt 0.4375 0.0000
vt 0.5625 0.0000
vt 1.0000 0.0000
vt 1.0000 1.0000
vt 0.5625 1.0000
vt 0.4375 0.0000
vt 0.4375 1.0000
vt 0.0000 1.0000
vt 0.0000 0.0000
vt 1.0000 0.0000
vt 1.0000 1.0000
vt 0.0000 1.0000
vt 0.0000 0.0000
vn -1.0000 0.0000 0.0000
vn 1.0000 0.0000 0.0000
vn 0.0000 0.0000 1.0000
vn 0.0000 0.0000 -1.0000
s off
f 1/1/1 5/2/1 6/3/1 2/4/1
f 3/5/2 8/6/2 4/7/2 7/8/2
f 7/9/3 14/10/3 13/11/3 3/12/3
f 2/13/3 6/14/3 11/15/3 9/16/3
f 10/17/4 12/18/4 15/19/4 16/20/4
g edge
v -0.062500 -0.500000 0.500000
v -0.062500 -0.500000 0.062500
v 0.062500 0.500000 0.062500
v 0.062500 -0.500000 0.500000
v -0.062500 0.500000 0.500000
v -0.062500 0.500000 0.062500
v 0.062500 -0.500000 0.062500
v 0.062500 0.500000 0.500000
v -0.500000 -0.500000 0.062500
v -0.500000 -0.500000 -0.062500
v -0.500000 0.500000 0.062500
v -0.500000 0.500000 -0.062500
v 0.500000 0.500000 0.062500
v 0.500000 -0.500000 0.062500
v 0.500000 0.500000 -0.062500
v 0.500000 -0.500000 -0.062500
vt 0.4375 0.5625
vt 0.5625 0.5625
vt 0.5625 1.0000
vt 0.4375 1.0000
vt 1.0000 0.4375
vt 1.0000 0.5625
vt 0.5625 0.4375
vt 1.0000 0.4375
vt 1.0000 0.5625
vt 0.4375 1.0000
vt 0.4375 0.0000
vt 0.5625 0.0000
vt 0.5625 1.0000
vt 0.5625 0.0000
vt 0.5625 1.0000
vt 0.4375 1.0000
vt 0.4375 0.0000
vt 0.4375 0.4375
vt 0.4375 0.0000
vt 0.5625 0.0000
vt 0.4375 0.0000
vt 0.5625 0.0000
vt 0.5625 1.0000
vt 0.4375 1.0000
vt 0.0000 0.5625
vt 0.0000 0.4375
vt 0.0000 0.4375
vt 0.0000 0.5625
vn 0.0000 1.0000 0.0000
vn 0.0000 -1.0000 0.0000
vn 0.0000 0.0000 1.0000
vn -1.0000 0.0000 0.0000
vn 1.0000 0.0000 0.0000
s off
f 19/21/5 22/22/5 21/23/5 24/24/5
f 25/25/6 26/26/6 18/27/6
f 22/22/5 28/28/5 27/29/5
f 21/30/7 17/31/7 20/32/7 24/33/7
f 25/34/8 27/35/8 28/36/8 26/37/8
f 18/27/6 23/38/6 20/39/6 17/40/6
f 30/41/9 32/42/9 31/43/9 29/44/9
f 29/45/5 31/46/5 19/21/5
f 30/47/6 23/38/6 32/48/6
f 28/28/5 22/22/5 19/21/5 31/46/5
f 23/38/6 18/27/6 26/26/6 32/48/6
