o door
v 0.500000 -0.500000 -0.125000
v 0.500000 -0.500000 0.125000
v -0.500000 -0.500000 0.125000
v -0.500000 -0.500000 -0.125000
v 0.500000 1.500000 -0.125000
v 0.500000 1.500000 0.125000
v -0.500000 1.500000 0.125000
v -0.500000 1.500000 -0.125000
vt 0.8333 0.0000
vt 1.0000 0.0000
vt 1.0000 0.5000
vt 0.8333 0.5000
vt 0.8333 1.0000
vt 0.8333 0.5000
vt 1.0000 0.5000
vt 1.0000 1.0000
vt 0.0000 0.0000
vt 0.0000 1.0000
vt 0.6667 1.0000
vt 0.6667 0.0000
vt 0.8333 0.0000
vt 0.8333 1.0000
vt 0.6667 1.0000
vt 0.6667 0.0000
vt 0.0000 1.0000
vt 0.0000 0.0000
vn 0.0000 -1.0000 0.0000
vn 0.0000 1.0000 0.0000
vn 1.0000 0.0000 0.0000
vn 0.0000 0.0000 1.0000
vn -1.0000 0.0000 0.0000
vn 0.0000 0.0000 -1.0000
s off
f 1/1/1 2/2/1 3/3/1 4/4/1
f 5/5/2 8/6/2 7/7/2 6/8/2
f 1/1/3 5/5/3 6/8/3 2/2/3
f 2/9/4 6/10/4 7/11/4 3/12/4
f 3/13/5 7/14/5 8/15/5 4/16/5
f 5/17/6 1/18/6 4/16/6 8/15/6
